# xmcd
#
# Track frame offsets: 
#        150
#        15839
#        32756
#        47160
#        60496
#        80223
#        92789
#        105165
#        120270
#        135538
#        152445
#        169627
#        185676
#
# Disc length: 2633 seconds
#
# Revision: 0
# Processed by: cddbd v1.5.2PL0 Copyright (c) Steve Scherf et al.
# Submitted via: ExactAudioCopy v1.3
#
DISCID=930a470d
DTITLE=Mary-Ann Brandon - Stone Blues
DYEAR=2007
DGENRE=Blues
TTITLE0=Mr. So and So
TTITLE1=A Hard Man Is Good To Find
TTITLE2=What Kind Of Man
TTITLE3=Lean Clean Lovin' Machine
TTITLE4=Don't Deceive Me Please Don't
TTITLE5=Who's Laughing Now
TTITLE6=No Pain No Gain
TTITLE7=Everything I Touch Turns To Gold
TTITLE8=Illustrated Man
TTITLE9=It's A Jungle Out There
TTITLE10=Straighten Up And Fly Right
TTITLE11=Pretty Boys
TTITLE12=Stone Blues
EXTD=
EXTT0=
EXTT1=
EXTT2=
EXTT3=
EXTT4=
EXTT5=
EXTT6=
EXTT7=
EXTT8=
EXTT9=
EXTT10=
EXTT11=
EXTT12=
PLAYORDER=
